<?xml version="1.0" encoding="UTF-8"?>
<!DOCTYPE svg PUBLIC "-//W3C//DTD SVG 1.1//EN" "http://www.w3.org/Graphics/SVG/1.1/DTD/svg11.dtd">
<svg xmlns="http://www.w3.org/2000/svg" version="1.1" width="512px" height="512px" style="shape-rendering:geometricPrecision; text-rendering:geometricPrecision; image-rendering:optimizeQuality; fill-rule:evenodd; clip-rule:evenodd" xmlns:xlink="http://www.w3.org/1999/xlink">
<g><path style="opacity:1" fill="#a82420" d="M -0.5,-0.5 C 170.167,-0.5 340.833,-0.5 511.5,-0.5C 511.5,170.167 511.5,340.833 511.5,511.5C 340.833,511.5 170.167,511.5 -0.5,511.5C -0.5,340.833 -0.5,170.167 -0.5,-0.5 Z"/></g>
<g><path style="opacity:1" fill="#d59796" d="M 266.5,120.5 C 283.659,119.503 300.992,119.17 318.5,119.5C 318.819,124.363 318.486,129.03 317.5,133.5C 317.5,129.167 317.5,124.833 317.5,120.5C 300.5,120.5 283.5,120.5 266.5,120.5 Z"/></g>
<g><path style="opacity:1" fill="#fefdfd" d="M 351.5,158.5 C 350.791,157.596 349.791,157.263 348.5,157.5C 348.5,165.833 348.5,174.167 348.5,182.5C 342.167,182.5 335.833,182.5 329.5,182.5C 329.5,161.833 329.5,141.167 329.5,120.5C 335.833,120.5 342.167,120.5 348.5,120.5C 348.175,128.352 348.508,136.018 349.5,143.5C 351.371,143.141 352.871,142.141 354,140.5C 355.843,133.305 359.343,127.139 364.5,122C 370.942,119.735 377.609,118.901 384.5,119.5C 384.5,123.833 384.5,128.167 384.5,132.5C 381.206,132.259 378.206,133.092 375.5,135C 373.294,138.268 371.461,141.768 370,145.5C 368.457,147.378 366.624,148.878 364.5,150C 367.783,151.561 370.617,153.727 373,156.5C 377.627,164.921 382.127,173.421 386.5,182C 379.167,182.667 371.833,182.667 364.5,182C 361.538,175.908 358.705,169.742 356,163.5C 354.951,161.382 353.451,159.716 351.5,158.5 Z"/></g>
<g><path style="opacity:1" fill="#fdfafa" d="M 78.5,119.5 C 85.8635,119.169 93.1968,119.503 100.5,120.5C 108.57,141.048 116.237,161.714 123.5,182.5C 116.8,182.83 110.134,182.497 103.5,181.5C 102.42,178.668 101.42,175.835 100.5,173C 92.8406,172.5 85.1739,172.334 77.5,172.5C 77.0405,175.877 76.3739,179.211 75.5,182.5C 68.8002,182.83 62.1335,182.497 55.5,181.5C 63.5705,160.952 71.2371,140.286 78.5,119.5 Z"/></g>
<g><path style="opacity:1" fill="#d79b99" d="M 189.5,182.5 C 189.5,161.833 189.5,141.167 189.5,120.5C 169.833,120.5 150.167,120.5 130.5,120.5C 130.5,141.167 130.5,161.833 130.5,182.5C 129.503,161.673 129.169,140.673 129.5,119.5C 149.833,119.5 170.167,119.5 190.5,119.5C 190.831,140.673 190.497,161.673 189.5,182.5 Z"/></g>
<g><path style="opacity:1" fill="#fefefe" d="M 189.5,182.5 C 183.167,182.5 176.833,182.5 170.5,182.5C 170.5,166.833 170.5,151.167 170.5,135.5C 163.5,135.5 156.5,135.5 149.5,135.5C 149.5,151.167 149.5,166.833 149.5,182.5C 143.167,182.5 136.833,182.5 130.5,182.5C 130.5,161.833 130.5,141.167 130.5,120.5C 150.167,120.5 169.833,120.5 189.5,120.5C 189.5,141.167 189.5,161.833 189.5,182.5 Z"/></g>
<g><path style="opacity:1" fill="#fdfafa" d="M 198.5,119.5 C 218.167,119.5 237.833,119.5 257.5,119.5C 257.5,124.833 257.5,130.167 257.5,135.5C 250.833,135.5 244.167,135.5 237.5,135.5C 237.5,151.167 237.5,166.833 237.5,182.5C 231.167,182.5 224.833,182.5 218.5,182.5C 218.5,166.833 218.5,151.167 218.5,135.5C 211.833,135.5 205.167,135.5 198.5,135.5C 198.5,130.167 198.5,124.833 198.5,119.5 Z"/></g>
<g><path style="opacity:1" fill="#fefcfc" d="M 266.5,120.5 C 283.5,120.5 300.5,120.5 317.5,120.5C 317.5,124.833 317.5,129.167 317.5,133.5C 307.167,133.5 296.833,133.5 286.5,133.5C 285.521,136.625 285.187,139.958 285.5,143.5C 295.5,143.5 305.5,143.5 315.5,143.5C 315.5,147.833 315.5,152.167 315.5,156.5C 305.5,156.5 295.5,156.5 285.5,156.5C 285.5,160.5 285.5,164.5 285.5,168.5C 296.833,168.5 308.167,168.5 319.5,168.5C 319.5,173.167 319.5,177.833 319.5,182.5C 301.833,182.5 284.167,182.5 266.5,182.5C 266.5,161.833 266.5,141.167 266.5,120.5 Z"/></g>
<g><path style="opacity:1" fill="#c6706d" d="M 329.5,120.5 C 335.979,119.509 342.646,119.176 349.5,119.5C 349.5,127.5 349.5,135.5 349.5,143.5C 348.508,136.018 348.175,128.352 348.5,120.5C 342.167,120.5 335.833,120.5 329.5,120.5 Z"/></g>
<g><path style="opacity:1" fill="#fdfafa" d="M 410.5,119.5 C 417.833,119.5 425.167,119.5 432.5,119.5C 439.763,140.286 447.43,160.952 455.5,181.5C 448.858,182.664 442.192,182.831 435.5,182C 434.273,179.264 433.273,176.431 432.5,173.5C 424.862,172.503 417.196,172.169 409.5,172.5C 408.626,175.789 407.959,179.123 407.5,182.5C 400.833,182.5 394.167,182.5 387.5,182.5C 394.966,161.435 402.633,140.435 410.5,119.5 Z"/></g>
<g><path style="opacity:1" fill="#ad332c" d="M 420.5,136.5 C 423.606,143.488 425.939,150.821 427.5,158.5C 423.167,158.5 418.833,158.5 414.5,158.5C 416.297,151.11 418.297,143.777 420.5,136.5 Z"/></g>
<g><path style="opacity:1" fill="#ad312a" d="M 88.5,137.5 C 89.4972,137.47 90.1639,137.97 90.5,139C 92.6887,145.394 94.3554,151.894 95.5,158.5C 91.1539,158.666 86.8206,158.499 82.5,158C 84.7311,151.244 86.7311,144.411 88.5,137.5 Z"/></g>
<g><path style="opacity:1" fill="#b84c49" d="M 286.5,133.5 C 286.5,136.5 286.5,139.5 286.5,142.5C 296.348,142.173 306.014,142.506 315.5,143.5C 305.5,143.5 295.5,143.5 285.5,143.5C 285.187,139.958 285.521,136.625 286.5,133.5 Z"/></g>
<g><path style="opacity:1" fill="#c16462" d="M 351.5,158.5 C 349.846,166.281 348.846,174.281 348.5,182.5C 348.5,174.167 348.5,165.833 348.5,157.5C 349.791,157.263 350.791,157.596 351.5,158.5 Z"/></g>
<g><path style="opacity:1" fill="#fefcfc" d="M 95.5,242.5 C 143.687,240.521 165.187,263.521 160,311.5C 154.639,359.36 128.139,386.027 80.5,391.5C 78.6988,384.099 76.6988,376.765 74.5,369.5C 101.958,367.518 120.292,353.685 129.5,328C 129.333,327.5 129.167,327 129,326.5C 124.309,330.762 118.809,333.262 112.5,334C 93.1736,337.447 77.0069,331.947 64,317.5C 49.1137,291.366 53.2803,268.866 76.5,250C 82.7461,246.98 89.0794,244.48 95.5,242.5 Z"/></g>
<g><path style="opacity:1" fill="#fefefe" d="M 259.5,243.5 C 264.833,243.5 270.167,243.5 275.5,243.5C 275.5,284.167 275.5,324.833 275.5,365.5C 285.5,365.5 295.5,365.5 305.5,365.5C 305.5,373.167 305.5,380.833 305.5,388.5C 276.167,388.5 246.833,388.5 217.5,388.5C 217.5,380.833 217.5,373.167 217.5,365.5C 227.833,365.5 238.167,365.5 248.5,365.5C 248.833,336.826 248.5,308.159 247.5,279.5C 246.893,279.624 246.56,279.957 246.5,280.5C 238.431,285.953 230.264,291.287 222,296.5C 220.739,296.241 219.739,295.574 219,294.5C 216.202,289.737 213.036,285.237 209.5,281C 226.047,268.239 242.714,255.739 259.5,243.5 Z"/></g>
<g><path style="opacity:1" fill="#d08b88" d="M 259.5,243.5 C 264.975,242.511 270.642,242.178 276.5,242.5C 276.5,283.167 276.5,323.833 276.5,364.5C 286.5,364.5 296.5,364.5 306.5,364.5C 306.5,372.833 306.5,381.167 306.5,389.5C 276.662,389.831 246.995,389.498 217.5,388.5C 246.833,388.5 276.167,388.5 305.5,388.5C 305.5,380.833 305.5,373.167 305.5,365.5C 295.5,365.5 285.5,365.5 275.5,365.5C 275.5,324.833 275.5,284.167 275.5,243.5C 270.167,243.5 264.833,243.5 259.5,243.5 Z"/></g>
<g><path style="opacity:1" fill="#fefefe" d="M 408.5,243.5 C 413.833,243.5 419.167,243.5 424.5,243.5C 424.5,284.167 424.5,324.833 424.5,365.5C 434.833,365.5 445.167,365.5 455.5,365.5C 455.5,373.167 455.5,380.833 455.5,388.5C 425.833,388.5 396.167,388.5 366.5,388.5C 366.5,380.833 366.5,373.167 366.5,365.5C 377.167,365.5 387.833,365.5 398.5,365.5C 398.833,336.826 398.5,308.159 397.5,279.5C 396.893,279.624 396.56,279.957 396.5,280.5C 388.14,286.02 379.64,291.353 371,296.5C 366.459,291.945 362.626,286.778 359.5,281C 375.472,268.016 391.805,255.516 408.5,243.5 Z"/></g>
<g><path style="opacity:1" fill="#eed2d1" d="M 408.5,243.5 C 413.975,242.511 419.642,242.178 425.5,242.5C 425.5,283.167 425.5,323.833 425.5,364.5C 435.681,364.173 445.681,364.506 455.5,365.5C 445.167,365.5 434.833,365.5 424.5,365.5C 424.5,324.833 424.5,284.167 424.5,243.5C 419.167,243.5 413.833,243.5 408.5,243.5 Z"/></g>
<g><path style="opacity:1" fill="#a92722" d="M 100.5,265.5 C 125.19,265.504 136.023,277.838 133,302.5C 122.551,311.124 110.717,313.624 97.5,310C 86.345,304.246 81.845,295.079 84,282.5C 86.3493,273.652 91.8493,267.986 100.5,265.5 Z"/></g>
<g><path style="opacity:1" fill="#cd8280" d="M 246.5,280.5 C 246.56,279.957 246.893,279.624 247.5,279.5C 248.5,308.159 248.833,336.826 248.5,365.5C 238.167,365.5 227.833,365.5 217.5,365.5C 227.319,364.506 237.319,364.173 247.5,364.5C 247.831,336.328 247.498,308.328 246.5,280.5 Z"/></g>
<g><path style="opacity:1" fill="#dba5a4" d="M 396.5,280.5 C 396.56,279.957 396.893,279.624 397.5,279.5C 398.5,308.159 398.833,336.826 398.5,365.5C 387.833,365.5 377.167,365.5 366.5,365.5C 376.653,364.506 386.986,364.172 397.5,364.5C 397.831,336.328 397.498,308.328 396.5,280.5 Z"/></g>
<g><path style="opacity:1" fill="#fdfafa" d="M 186.5,308.5 C 198.83,308.331 204.996,314.331 205,326.5C 200.421,337.693 192.587,340.86 181.5,336C 174.007,328.251 173.674,320.251 180.5,312C 182.432,310.541 184.432,309.375 186.5,308.5 Z"/></g>
<g><path style="opacity:1" fill="#fdfbfb" d="M 325.5,308.5 C 342.205,308.926 347.705,316.926 342,332.5C 333.968,340.423 325.968,340.423 318,332.5C 312.802,321.958 315.302,313.958 325.5,308.5 Z"/></g>
</svg>
